<svg width="512" height="512" viewBox="0 0 512 512" fill="none" xmlns="http://www.w3.org/2000/svg">
<path d="M31 116.547C31 69.3006 69.3006 31 116.547 31H383.453C430.699 31 469 69.3006 469 116.547V383.453C469 430.699 430.699 469 383.453 469H116.547C69.3006 469 31 430.699 31 383.453V116.547Z" fill="white"/>
<mask id="mask0_2_2" style="mask-type:alpha" maskUnits="userSpaceOnUse" x="0" y="0" width="512" height="512">
<rect x="1" y="1" width="510" height="510" rx="99" fill="#C4C4C4" stroke="#1C2FA3" stroke-width="2"/>
</mask>
<g mask="url(#mask0_2_2)">
<path d="M0 256V512H256H512V256V1.14441e-05H256H0V256ZM155.648 53.248C157.952 55.808 165.12 67.072 171.264 78.336L182.272 98.56L213.504 107.008C246.016 115.712 254.208 120.832 251.648 130.56C248.832 140.8 242.688 141.312 213.248 133.376C198.144 129.28 184.832 126.464 183.808 127.488C183.04 128.512 179.2 140.8 175.616 154.624C171.776 168.704 167.68 181.504 166.144 183.552C161.536 188.928 151.552 187.392 147.456 180.992C143.872 175.616 144.384 172.544 152.32 143.616L161.024 112.128L146.944 87.552C139.264 73.984 133.12 61.696 133.12 60.416C133.12 56.064 141.568 48.64 146.432 48.64C148.992 48.64 153.088 50.688 155.648 53.248ZM360.448 115.456C383.744 126.72 393.728 157.696 381.696 181.248C363.776 216.32 311.808 216.32 294.656 181.248C285.184 161.28 288 141.568 302.848 125.696C318.464 109.312 339.712 105.472 360.448 115.456ZM256.512 172.8C272.384 179.2 286.72 200.704 286.72 217.6C286.72 226.304 281.088 240.896 274.688 248.32C249.088 278.784 199.68 268.032 189.184 229.888C178.944 190.976 218.88 156.928 256.512 172.8ZM158.208 232.704C174.848 241.152 184.32 256.512 184.32 275.2C184.32 291.072 179.456 301.568 166.912 312.832C137.728 339.2 91.392 320.768 87.552 281.6C84.736 250.88 104.96 228.096 135.168 227.84C143.616 227.84 152.32 229.632 158.208 232.704ZM367.872 239.104C413.952 260.608 398.08 331.52 346.88 331.264C302.592 331.008 281.088 279.552 312.32 248.32C328.448 232.192 346.368 229.12 367.872 239.104ZM264.96 296.704C312.832 318.464 297.472 389.888 244.736 389.888C216.32 389.888 196.608 369.152 196.864 339.712C196.864 304.896 233.216 282.112 264.96 296.704ZM358.144 358.4C390.656 367.616 404.992 402.176 388.352 430.592C371.968 458.752 335.104 463.616 312.064 440.576C290.304 418.816 293.632 381.44 318.976 366.08C334.336 356.352 344.576 354.304 358.144 358.4Z" fill="#4358D8"/>
<path d="M321.536 142.336C312.064 151.808 312.576 164.352 322.304 174.336C327.424 179.456 332.288 181.76 337.92 181.76C354.304 181.76 365.824 162.304 357.888 147.712C350.464 133.888 332.8 131.328 321.536 142.336Z" fill="#4358D8"/>
<path d="M221.952 199.68C213.248 206.592 210.944 217.6 216.064 227.584C227.84 249.856 258.56 242.688 258.56 217.6C258.56 197.632 237.568 187.392 221.952 199.68Z" fill="#4358D8"/>
<path d="M119.04 259.84C104.96 273.664 115.2 298.24 135.168 298.24C147.712 298.24 155.392 291.84 157.696 280.32C159.488 270.848 153.856 257.536 147.2 254.976C137.728 251.392 125.184 253.44 119.04 259.84Z" fill="#4358D8"/>
<path d="M334.848 262.912C314.88 275.456 323.584 304.64 346.88 304.64C360.448 304.64 369.664 295.936 369.664 282.624C369.664 265.472 349.184 253.696 334.848 262.912Z" fill="#4358D8"/>
<path d="M232.192 320.256C229.376 321.792 225.792 326.912 223.744 331.776C220.672 339.2 220.672 341.76 223.744 349.184C231.936 368.896 257.024 368.896 265.216 349.184C271.872 333.312 261.12 317.44 243.968 317.44C240.128 317.44 234.752 318.72 232.192 320.256Z" fill="#4358D8"/>
<path d="M336.384 385.536C328.448 389.376 322.56 398.336 322.56 406.016C322.56 414.208 330.496 424.704 338.688 427.264C354.304 432.384 368.64 422.656 368.64 406.784C368.64 388.864 352 377.856 336.384 385.536Z" fill="#4358D8"/>
</g>
<path d="M0 0H512H0ZM512 412C512 483.797 453.797 542 382 542H130C58.203 542 0 483.797 0 412C0 450.66 44.7715 482 100 482H412C467.228 482 512 450.66 512 412ZM0 512V0V512ZM512 0V512V0Z" fill="#1C2FA3"/>
</svg>
